<?xml version="1.0" standalone="no"?>
<!DOCTYPE svg PUBLIC "-//W3C//DTD SVG 20010904//EN"
 "http://www.w3.org/TR/2001/REC-SVG-20010904/DTD/svg10.dtd">
<svg version="1.0" xmlns="http://www.w3.org/2000/svg"
 width="512.000000pt" height="512.000000pt" viewBox="0 0 512.000000 512.000000"
 preserveAspectRatio="xMidYMid meet">
<metadata>
Created by potrace 1.11, written by Peter Selinger 2001-2013
</metadata>
<g transform="translate(0.000000,512.000000) scale(0.100000,-0.100000)"
fill="#000000" stroke="none">
<path d="M3745 4745 c-40 -107 -72 -148 -139 -182 -28 -15 -73 -32 -101 -39
-32 -8 -41 -13 -24 -13 121 -4 231 -111 265 -256 6 -28 7 -26 18 26 23 108
100 194 200 221 l44 12 -48 16 c-95 32 -168 105 -195 194 -11 34 -14 38 -20
21z"/>
<path d="M1216 4663 c-3 -3 -6 -12 -6 -18 0 -11 46 -17 190 -28 16 -1 25 3 25
12 0 8 -11 18 -25 21 -39 11 -176 20 -184 13z"/>
<path d="M960 4599 c-62 -34 -100 -66 -100 -86 0 -21 19 -15 60 17 21 17 59
40 84 51 45 20 62 49 29 49 -10 0 -43 -14 -73 -31z"/>
<path d="M1582 4584 c2 -9 39 -29 93 -50 102 -38 118 -41 113 -18 -2 11 -35
29 -88 50 -96 37 -123 42 -118 18z"/>
<path d="M1925 4440 c-6 -10 3 -16 103 -74 68 -39 92 -44 92 -22 0 14 -155
106 -178 106 -6 0 -13 -4 -17 -10z"/>
<path d="M749 4353 c-18 -48 -39 -136 -39 -165 0 -43 28 -36 35 10 4 20 15 66
25 101 10 36 17 68 14 73 -10 16 -25 8 -35 -19z"/>
<path d="M3420 4296 c-92 -27 -192 -71 -294 -129 l-77 -43 -72 13 c-41 8 -177
16 -317 20 l-245 5 -72 50 c-66 44 -93 53 -93 28 0 -5 25 -26 56 -48 l57 -40
-49 -7 c-27 -4 -79 -13 -115 -21 l-65 -15 -92 55 c-163 96 -314 146 -440 146
-70 0 -76 -2 -106 -32 -80 -80 -124 -324 -95 -521 l11 -73 -45 -65 c-59 -86
-92 -152 -118 -241 -36 -124 -37 -434 -2 -575 4 -19 1 -23 -19 -23 -13 0 -29
-5 -36 -12 -14 -14 -10 -19 -56 65 l-38 69 23 42 c42 79 4 151 -86 164 -46 7
-46 7 -77 77 -16 39 -36 76 -44 84 -29 32 -25 -19 9 -97 34 -78 34 -80 16
-103 -60 -78 -14 -182 82 -182 35 0 38 -3 64 -56 14 -31 35 -68 46 -81 l19
-25 -47 -41 c-33 -29 -45 -45 -40 -57 11 -29 30 -19 115 59 45 42 82 69 82 61
0 -38 63 -195 105 -263 90 -143 209 -251 363 -328 80 -40 221 -89 290 -101 47
-8 47 -7 24 -55 -14 -29 -24 -36 -62 -43 -48 -8 -114 -3 -168 14 -23 8 -55 38
-112 109 -151 187 -234 240 -373 240 -125 -1 -197 -53 -197 -145 0 -49 26 -93
76 -131 104 -80 133 -115 191 -233 46 -95 68 -128 122 -182 104 -103 221 -149
389 -151 l92 -1 0 -122 0 -123 -66 -58 c-77 -67 -99 -108 -89 -169 11 -74 79
-115 192 -115 38 0 83 4 100 9 30 9 33 7 52 -24 32 -54 65 -70 146 -70 59 0
81 5 135 32 36 18 84 52 108 76 l43 44 42 -38 c51 -47 136 -93 198 -109 35 -9
46 -16 43 -28 -3 -12 21 -32 80 -69 46 -29 88 -53 94 -53 33 0 14 25 -52 69
-41 28 -77 55 -80 59 -3 5 12 14 34 21 38 11 90 60 90 86 0 10 9 11 38 4 103
-24 217 -4 262 47 64 74 48 143 -54 225 l-66 53 0 188 0 188 70 46 c39 26 70
53 70 61 0 27 -29 24 -82 -11 l-55 -35 -6 107 c-6 93 -29 213 -51 262 -5 12
13 20 91 38 249 59 430 176 544 350 26 39 50 78 52 85 3 7 15 0 31 -20 16 -19
33 -30 41 -26 21 8 19 23 -11 67 l-26 39 26 121 c91 426 48 745 -133 989 l-36
48 0 184 0 183 45 7 c69 10 80 15 80 37 0 22 7 22 -123 5 -13 -1 -24 13 -42
56 -13 32 -32 68 -42 79 -46 53 -149 62 -273 24z m-2367 -1237 c29 -16 37 -28
37 -61 0 -34 -32 -68 -64 -68 -60 0 -92 75 -51 120 20 23 46 25 78 9z"/>
<path d="M4130 4181 c-66 -5 -75 -8 -75 -26 0 -19 5 -20 105 -16 63 2 108 8
112 14 11 18 -12 37 -41 35 -14 -1 -60 -4 -101 -7z"/>
<path d="M4425 4159 c-11 -17 1 -22 108 -46 71 -16 104 -20 112 -12 16 16 -19
36 -96 53 -80 19 -115 20 -124 5z"/>
<path d="M4780 4025 c0 -8 17 -30 38 -49 20 -19 48 -52 62 -75 25 -40 43 -50
55 -31 9 15 -22 67 -74 121 -47 49 -81 63 -81 34z"/>
<path d="M700 3988 c0 -43 23 -195 31 -203 23 -24 29 13 17 113 -11 87 -15
102 -30 102 -10 0 -18 -6 -18 -12z"/>
<path d="M4956 3708 c-2 -7 -7 -59 -10 -116 -6 -94 -5 -103 11 -100 9 2 21 18
25 36 13 48 6 184 -9 190 -7 2 -15 -2 -17 -10z"/>
<path d="M770 3613 c0 -10 12 -57 26 -105 25 -80 43 -105 58 -80 9 15 -56 202
-70 202 -8 0 -14 -8 -14 -17z"/>
<path d="M4846 3254 c-25 -53 -46 -100 -46 -104 0 -20 31 -17 44 3 30 45 77
157 74 173 -8 41 -29 19 -72 -72z"/>
<path d="M4708 3002 c-27 -32 -108 -160 -108 -171 0 -6 8 -11 18 -11 10 0 39
31 69 73 63 88 68 100 50 115 -11 9 -17 8 -29 -6z"/>
<path d="M411 2912 c-26 -105 -108 -186 -221 -218 -25 -7 -36 -13 -25 -14 33
-2 94 -26 133 -54 48 -33 98 -115 113 -186 l12 -55 12 55 c14 71 37 112 86
160 39 38 127 79 172 81 12 0 -7 9 -42 19 -115 33 -188 104 -214 210 l-14 54
-12 -52z"/>
<path d="M4473 2697 c-4 -8 -29 -37 -54 -65 -45 -49 -48 -51 -78 -41 -40 14
-93 -3 -122 -39 -18 -23 -20 -36 -16 -83 l5 -57 -60 -58 -60 -59 -15 23 c-17
24 -38 29 -46 9 -6 -17 94 -197 111 -197 24 0 24 30 -2 75 l-25 46 66 62 c37
34 74 61 82 59 9 -1 33 -3 53 -4 85 -2 135 79 102 165 -3 9 18 41 55 83 34 38
60 73 58 79 -6 16 -44 18 -54 2z m-118 -172 c14 -13 25 -33 25 -45 0 -26 -43
-70 -68 -70 -28 0 -60 30 -68 62 -4 21 0 33 20 52 32 33 60 33 91 1z"/>
<path d="M1234 2595 c-8 -21 97 -185 118 -185 32 0 27 17 -30 108 -55 89 -77
108 -88 77z"/>
<path d="M866 2448 c-68 -75 -77 -94 -50 -105 19 -7 153 132 154 160 1 37 -40
15 -104 -55z"/>
<path d="M625 2164 c-62 -83 -71 -108 -40 -111 15 -2 36 19 78 76 60 83 70
111 38 111 -12 0 -40 -29 -76 -76z"/>
<path d="M4620 2196 c0 -51 -85 -136 -137 -136 -14 0 -21 -4 -18 -10 3 -5 16
-10 29 -10 32 0 101 -52 117 -89 14 -32 29 -41 29 -18 0 23 63 89 98 104 l35
15 -40 18 c-50 22 -81 62 -89 112 -7 42 -24 52 -24 14z"/>
<path d="M3878 2118 c-76 -62 -97 -98 -59 -98 27 0 171 119 171 142 0 33 -34
19 -112 -44z"/>
<path d="M4213 1998 c-13 -17 74 -208 94 -208 28 0 23 30 -21 124 -44 96 -55
107 -73 84z"/>
<path d="M3583 1888 c-53 -38 -83 -67 -83 -79 0 -11 7 -19 16 -19 17 0 184
117 184 129 0 8 -22 31 -29 31 -4 -1 -43 -28 -88 -62z"/>
<path d="M416 1840 c-39 -75 -45 -94 -35 -106 16 -19 20 -14 74 81 53 93 57
109 29 113 -17 2 -29 -13 -68 -88z"/>
<path d="M4365 1648 c-6 -18 59 -201 74 -206 24 -8 21 28 -11 118 -32 89 -52
118 -63 88z"/>
<path d="M301 1568 c-9 -24 -26 -100 -35 -155 -3 -20 0 -35 9 -43 19 -15 27 1
42 80 27 140 27 140 9 140 -9 0 -20 -10 -25 -22z"/>
<path d="M4477 1293 c-3 -5 0 -38 8 -73 7 -36 16 -82 19 -102 5 -25 12 -38 23
-38 13 0 15 9 10 58 -13 113 -41 186 -60 155z"/>
<path d="M286 1213 c-13 -13 -5 -51 23 -108 37 -74 53 -95 75 -95 23 0 20 17
-13 69 -16 25 -35 65 -42 88 -11 40 -30 59 -43 46z"/>
<path d="M1780 964 c-25 -7 -71 -20 -102 -29 -45 -13 -58 -21 -58 -36 0 -24
17 -24 110 1 109 30 108 30 113 45 10 25 -16 33 -63 19z"/>
<path d="M513 915 c-4 -11 0 -22 10 -29 27 -20 176 -68 192 -62 35 13 11 34
-72 63 -49 16 -96 33 -105 37 -13 6 -20 3 -25 -9z"/>
<path d="M4517 848 c-4 -40 -10 -90 -13 -112 -6 -33 -5 -38 12 -34 21 4 31 41
36 142 2 58 0 71 -13 74 -13 2 -17 -11 -22 -70z"/>
<path d="M1380 870 c-19 -4 -56 -11 -82 -15 -38 -5 -48 -10 -48 -25 0 -10 4
-21 8 -24 10 -6 209 27 218 36 3 4 4 14 1 23 -7 16 -39 18 -97 5z"/>
<path d="M874 827 c-12 -31 6 -37 117 -37 102 0 109 1 109 20 0 18 -7 20 -79
20 -43 0 -92 3 -110 6 -23 5 -32 2 -37 -9z"/>
<path d="M3222 578 c5 -15 178 -109 192 -104 29 8 8 29 -71 70 -88 46 -128 57
-121 34z"/>
<path d="M4373 484 c-75 -78 -85 -94 -56 -94 25 0 143 123 143 148 0 12 -3 22
-7 21 -5 0 -41 -34 -80 -75z"/>
<path d="M3565 421 c-8 -13 15 -24 114 -55 58 -18 88 -23 95 -16 16 16 -1 26
-95 54 -96 29 -105 30 -114 17z"/>
<path d="M4035 350 c-80 -4 -100 -8 -100 -20 0 -12 18 -15 102 -15 60 0 106 4
113 11 21 21 -15 29 -115 24z"/>
</g>
</svg>
